<?xml version="1.0" encoding="utf-8"?>
<!-- Generator: Adobe Illustrator 16.0.0, SVG Export Plug-In . SVG Version: 6.00 Build 0)  -->
<!DOCTYPE svg PUBLIC "-//W3C//DTD SVG 1.1//EN" "http://www.w3.org/Graphics/SVG/1.1/DTD/svg11.dtd">
<svg version="1.1" id="Capa_1" xmlns="http://www.w3.org/2000/svg" xmlns:xlink="http://www.w3.org/1999/xlink" x="0px" y="0px"
	 width="595.279px" height="841.891px" viewBox="0 0 595.279 841.891" enable-background="new 0 0 595.279 841.891"
	 xml:space="preserve">
<g>
	<g>
		<g>
			<path d="M550.965,370.571c-8.555-4.422-19.076-1.067-23.498,7.488l-20.294,39.278l-19.536-39.071
				c-2.953-5.909-8.992-9.641-15.599-9.641s-12.645,3.732-15.599,9.641l-19.281,38.562l-19.281-38.562
				c-3.125-6.254-9.671-10.029-16.665-9.608l-1.056,0.065c-7.771,0.477-14.036,5.974-15.843,13.142
				c-1.188-4.776-4.368-9.026-9.115-11.399c-8.612-4.305-19.09-0.816-23.397,7.799l-19.281,38.563l-19.28-38.562
				c-2.956-5.909-8.993-9.641-15.6-9.641s-12.644,3.732-15.6,9.641l-19.28,38.562l-19.28-38.562
				c-4.308-8.614-14.784-12.106-23.398-7.799c-4.747,2.373-7.927,6.623-9.115,11.397c-1.806-7.168-8.071-12.666-15.842-13.143
				l-1.056-0.065c-6.98-0.43-13.539,3.354-16.666,9.608l-19.281,38.563l-19.28-38.562c-6.35-12.667-24.71-12.976-31.197,0
				l-19.536,39.073l-20.295-39.277c-4.42-8.557-14.941-11.909-23.498-7.489c-8.558,4.422-11.91,14.943-7.488,23.5l36.042,69.759
				c6.542,12.664,24.712,12.555,31.093-0.206l19.28-38.563l19.281,38.562c6.423,12.844,24.791,12.814,31.198,0l32.495-64.993
				c2.285-2.221,3.966-5.073,4.763-8.295c0.304,1.196,0.729,2.379,1.304,3.528l34.88,69.76c6.423,12.844,24.79,12.814,31.197,0
				l19.28-38.562l19.28,38.562c6.423,12.844,24.791,12.815,31.197,0l34.88-69.761c0.574-1.149,1-2.331,1.304-3.527
				c0.798,3.223,2.478,6.076,4.765,8.298l32.495,64.99c6.42,12.844,24.791,12.814,31.196,0l19.281-38.562l19.281,38.562
				c6.373,12.748,24.544,12.88,31.092,0.206l36.043-69.761C562.875,385.512,559.523,374.991,550.965,370.571z"/>
		</g>
	</g>
	<g>
		<g>
			<path d="M573.227,308.55c-44.32-108.171-151.628-185.245-275.587-185.245c-123.99,0-231.277,77.101-275.586,185.244
				C8.721,318.041,0,333.608,0,351.186v139.519c0,17.577,8.721,33.146,22.054,42.638C66.372,641.509,173.679,718.585,297.64,718.585
				c123.99,0,231.276-77.101,275.587-185.245c13.332-9.491,22.053-25.06,22.053-42.636V351.186
				C595.28,333.61,586.559,318.042,573.227,308.55z M530.224,298.866h-89.161c-11.083-47.489-28.384-88.376-50.394-118.891
				c-1.539-2.131-3.096-4.198-4.669-6.214C447.167,195.901,499.274,240.369,530.224,298.866z M315.079,161.105
				c47.722,16.022,77.563,88.267,90.09,137.761h-90.09V161.105z M280.2,161.105v137.761H190.11
				c10.018-39.576,24.646-73.333,42.79-98.486C243.801,185.268,260.016,167.882,280.2,161.105z M209.28,173.761
				c-1.573,2.016-3.13,4.082-4.668,6.214c-22.011,30.515-39.313,71.402-50.395,118.891h-89.16
				C96.006,240.369,148.112,195.901,209.28,173.761z M65.057,543.024h89.16c10.15,43.489,27.587,89.891,55.063,125.104
				C148.112,645.989,96.006,601.521,65.057,543.024z M280.2,680.785c-47.722-16.022-77.563-88.267-90.091-137.761H280.2V680.785z
				 M315.079,680.785V542.791h90.091C392.623,592.359,362.699,664.796,315.079,680.785z M386,668.129
				c27.473-35.209,44.911-81.839,55.063-125.338h89.161C499.274,601.288,447.168,645.989,386,668.129z M560.401,490.704
				c0,9.616-7.824,17.44-17.44,17.44c-11.064,0-477.991,0-490.641,0c-9.616,0-17.439-7.824-17.439-17.44V351.186
				c0-9.616,7.823-17.44,17.439-17.44c13.295,0,478.703,0,490.641,0c9.616,0,17.44,7.824,17.44,17.44V490.704z"/>
		</g>
	</g>
</g>
</svg>
