<svg xmlns="http://www.w3.org/2000/svg" width="64" height="64">
<path class="st0" d="M32,4.7c3.8,0,7.6,0,11.3,0c2.8,0,5,1.2,6.4,3.7c3.8,6.7,7.7,13.3,11.5,20c1.4,2.4,1.3,4.9,0,7.3
	c-3.8,6.7-7.6,13.3-11.4,19.9c-1.4,2.4-3.6,3.7-6.4,3.7c-7.6,0-15.1,0-22.7,0c-2.8,0-5-1.2-6.4-3.7C10.5,49,6.7,42.3,2.9,35.7
	c-1.4-2.4-1.4-4.9,0-7.4C6.7,21.7,10.5,15,14.3,8.4c1.4-2.5,3.6-3.7,6.5-3.7C24.5,4.7,28.2,4.7,32,4.7z M48.4,31.1
	c0-1.4-0.2-2.9-0.5-4.3c-1-3.7-3-6.8-6.1-9.2c-1.1-0.8-2.3-0.6-3.1,0.4c-0.7,0.9-0.5,2.2,0.5,3c0.3,0.3,0.6,0.5,0.9,0.7
	c4.1,3.7,5.2,9.8,2.8,14.7c-2.5,5-7.9,7.8-13.4,6.6c-4.9-1.1-8.2-4.2-9.4-9c-1.2-5,0.2-9.3,4.2-12.7c1.3-1.1,1.5-2.3,0.6-3.4
	c-0.8-1-2.1-1-3.4,0.1c-5,4.3-7,9.8-5.8,16.3C17.1,42,24.5,48,32.2,47.6C41.3,47.3,48.2,40.2,48.4,31.1z M34.3,23.6
	c0-2.4,0-4.7,0-7.1c0-1.7-1-2.8-2.4-2.8c-1.4,0-2.4,1.1-2.4,2.8c0,4.7,0,9.4,0,14.1c0,1.6,1,2.8,2.4,2.8c1.4,0,2.4-1.1,2.4-2.8
	C34.3,28.3,34.3,25.9,34.3,23.6z" fill="#68bd45"/>
</svg>
