<?xml version="1.0" encoding="utf-8"?>
<!-- Generator: Adobe Illustrator 24.0.1, SVG Export Plug-In . SVG Version: 6.00 Build 0)  -->
<svg version="1.1"
	 id="svg2" inkscape:export-filename="C:\Users\dfernandez\Desktop\thymeleaf_new.png" inkscape:export-xdpi="283.16165" inkscape:export-ydpi="283.16165" inkscape:version="0.91 r13725" sodipodi:docname="thymeleaf.svg" xmlns:cc="http://creativecommons.org/ns#" xmlns:dc="http://purl.org/dc/elements/1.1/" xmlns:inkscape="http://www.inkscape.org/namespaces/inkscape" xmlns:rdf="http://www.w3.org/1999/02/22-rdf-syntax-ns#" xmlns:sodipodi="http://sodipodi.sourceforge.net/DTD/sodipodi-0.dtd" xmlns:svg="http://www.w3.org/2000/svg"
	 xmlns="http://www.w3.org/2000/svg" xmlns:xlink="http://www.w3.org/1999/xlink" x="0px" y="0px" viewBox="0 0 183.8 184.1"
	 style="enable-background:new 0 0 183.8 184.1;" xml:space="preserve">
<style type="text/css">
	.st0{fill:#005F0F;}
	.st1{fill:#FFFFFF;}
	.st2{fill:#AEA99F;}
</style>
<sodipodi:namedview  bordercolor="#666666" borderopacity="1.0" id="base" inkscape:current-layer="layer1" inkscape:cx="329.62599" inkscape:cy="804.45425" inkscape:document-units="px" inkscape:pageopacity="0.0" inkscape:pageshadow="2" inkscape:window-height="998" inkscape:window-maximized="1" inkscape:window-width="1920" inkscape:window-x="1440" inkscape:window-y="1" inkscape:zoom="1.1688298" pagecolor="#ffffff" showgrid="false" showguides="false">
	</sodipodi:namedview>
<path id="rect4303" inkscape:export-filename="C:\Users\dfernandez\Desktop\thymeleaf_new.png" inkscape:export-xdpi="39.758492" inkscape:export-ydpi="39.758492" class="st0" d="
	M13.1,0h157.6c7.2,0,13.1,5.9,13.1,13.1V171c0,7.2-5.9,13.1-13.1,13.1H13.1C5.9,184.1,0,178.2,0,171V13.1C0,5.9,5.9,0,13.1,0z"/>
<path id="path4305" inkscape:export-filename="C:\Users\dfernandez\Desktop\thymeleaf_new.png" inkscape:export-xdpi="39.758492" inkscape:export-ydpi="39.758492" sodipodi:cx="153.55814" sodipodi:cy="165.8233" sodipodi:end="0.18880423" sodipodi:open="true" sodipodi:rx="33.041161" sodipodi:ry="33.041161" sodipodi:start="0.1882215" sodipodi:type="arc" class="st1" d="
	M116.1,142.5C116.1,142.5,116.1,142.5,116.1,142.5"/>
<path id="path4307" inkscape:connector-curvature="0" class="st1" d="M156.6,25.1c-22.6,27.7-50.3,51-79.8,71.1
	c-9.6,6.9-20.2,13-27.5,22.4c-2.8,4.9-3.5,11.9,1.3,15.9c8,7.6,20.5,9.2,30.5,5c14.1-5.4,23.8-17.5,31.9-29.6
	C131.3,83.6,142.4,53.4,156.6,25.1L156.6,25.1z"/>
<path id="path4309" inkscape:connector-curvature="0" sodipodi:nodetypes="cccccccccc" class="st2" d="M143.7,34.7
	C115.5,57,92.9,69.1,64.1,79.5c-8.7,3.7-18,8.4-22.1,17.6c-4.2,8.6-2.8,20.7,2,28.7c-0.4-3.4,1.4-8.8,4.1-11.4
	C57,104.5,68.6,98,78.8,90.5l0,0l0,0C102.4,74.3,124.5,55.8,143.7,34.7L143.7,34.7z"/>
<g id="flowRoot4165">
</g>
</svg>
